<svg width="1746" height="451" viewBox="0 0 1746 451" fill="none" xmlns="http://www.w3.org/2000/svg">
<path d="M0.216797 367.74V11.4621C0.216797 5.55892 5.0669 0.773438 11.0498 0.773438H49.5415C55.5244 0.773438 60.3745 5.55891 60.3745 11.4621V280.341V310.783V367.74C60.3745 373.644 55.5244 378.429 49.5415 378.429H11.0498C5.06689 378.429 0.216797 373.644 0.216797 367.74Z" fill="white"/>
<path d="M235.957 258.466C235.243 259.098 234.83 260.002 234.83 260.947V367.78C234.83 373.661 239.68 378.429 245.663 378.429H284.155C290.138 378.429 294.988 373.661 294.988 367.78V194.146C294.988 190.614 289.62 189.912 288.182 193.422C277.448 219.623 259.422 240.454 235.957 258.466Z" fill="white"/>
<path d="M294.988 57.9575C294.988 60.2354 292.712 61.841 290.499 61.1652C273.929 56.105 256.382 53.2299 238.209 52.8816C236.342 52.8458 234.83 51.3601 234.83 49.5247V11.4224C234.83 5.54113 239.68 0.773438 245.663 0.773438H284.155C290.138 0.773438 294.988 5.54112 294.988 11.4224V57.9575Z" fill="white"/>
<path fill-rule="evenodd" clip-rule="evenodd" d="M132.545 267.489C235.828 269.873 297.093 180.182 294.745 82.9594C180.889 43.6739 77.3256 128.301 76.3965 244.049C111.549 228.426 180.801 183.022 229.291 130.457C230.089 129.593 231.43 130.535 230.853 131.56C195.814 193.783 127.735 238.615 90.6419 258.487C103.989 263.145 118.399 266.632 132.545 267.489Z" fill="#5BAE5B"/>
<path d="M1606.28 450.775L1641.55 368.1L1642.16 393.024L1563.72 220.074H1612.67L1651.89 312.78C1653.51 316.225 1655.03 320.278 1656.45 324.938C1658.07 329.396 1659.38 333.753 1660.4 338.008L1653.1 341.048C1654.32 337.603 1655.74 333.652 1657.36 329.194C1658.98 324.736 1660.6 319.974 1662.22 314.908L1695.97 220.074H1745.22L1677.73 380.866L1650.06 450.775H1606.28Z" fill="white"/>
<path d="M1308.55 380.866V220.075H1350.2L1351.11 250.774L1344.73 251.99C1346.96 246.721 1349.9 241.959 1353.55 237.704C1357.2 233.449 1361.45 229.801 1366.32 226.762C1371.38 223.722 1376.65 221.392 1382.12 219.771C1387.6 217.947 1393.07 217.035 1398.54 217.035C1406.85 217.035 1414.35 218.352 1421.04 220.987C1427.73 223.621 1433.4 227.775 1438.06 233.449C1442.72 238.92 1446.37 246.215 1449.01 255.333L1442.32 254.725L1444.45 249.862C1447.08 244.999 1450.43 240.642 1454.48 236.792C1458.53 232.739 1463.09 229.295 1468.16 226.458C1473.23 223.418 1478.5 221.088 1483.97 219.467C1489.44 217.846 1494.81 217.035 1500.08 217.035C1512.65 217.035 1523.09 219.568 1531.4 224.634C1539.71 229.497 1545.89 236.894 1549.94 246.823C1554.2 256.752 1556.33 268.91 1556.33 283.297V380.866H1513.16V286.337C1513.16 279.042 1512.14 273.064 1510.12 268.403C1508.09 263.743 1505.15 260.298 1501.3 258.069C1497.45 255.637 1492.48 254.422 1486.4 254.422C1481.74 254.422 1477.38 255.232 1473.33 256.853C1469.48 258.272 1466.03 260.399 1462.99 263.236C1460.16 265.87 1457.93 269.011 1456.3 272.659C1454.68 276.306 1453.87 280.359 1453.87 284.817V380.866H1410.7V286.033C1410.7 279.346 1409.59 273.672 1407.36 269.011C1405.33 264.148 1402.39 260.501 1398.54 258.069C1394.69 255.637 1389.93 254.422 1384.25 254.422C1379.59 254.422 1375.23 255.232 1371.18 256.853C1367.33 258.272 1363.98 260.399 1361.15 263.236C1358.31 265.87 1355.98 269.011 1354.16 272.659C1352.53 276.306 1351.72 280.258 1351.72 284.513V380.866H1308.55Z" fill="white"/>
<path d="M1219.18 383.905C1201.75 383.905 1186.55 380.359 1173.58 373.267C1160.61 366.175 1150.48 356.448 1143.18 344.087C1135.88 331.726 1132.24 317.542 1132.24 301.534C1132.24 289.173 1134.26 277.825 1138.32 267.491C1142.37 257.156 1148.05 248.24 1155.34 240.743C1162.64 233.043 1171.25 227.166 1181.18 223.113C1191.32 218.858 1202.26 216.73 1214.02 216.73C1224.96 216.73 1235.1 218.757 1244.42 222.81C1253.74 226.66 1261.75 232.232 1268.44 239.527C1275.33 246.619 1280.6 255.029 1284.24 264.755C1287.89 274.482 1289.51 285.12 1289.11 296.67L1288.8 310.044H1159.6L1152.61 283.6H1253.23L1248.37 289.072V282.385C1247.96 276.913 1246.14 271.949 1242.9 267.491C1239.86 263.033 1235.91 259.588 1231.04 257.156C1226.18 254.725 1220.7 253.509 1214.62 253.509C1205.71 253.509 1198.11 255.231 1191.82 258.676C1185.74 262.121 1181.08 267.187 1177.84 273.874C1174.6 280.561 1172.97 288.666 1172.97 298.19C1172.97 307.917 1175 316.326 1179.05 323.418C1183.31 330.511 1189.19 336.083 1196.69 340.136C1204.39 343.986 1213.41 345.911 1223.75 345.911C1230.84 345.911 1237.32 344.796 1243.2 342.567C1249.08 340.338 1255.36 336.488 1262.05 331.017L1282.72 359.893C1276.85 365.161 1270.36 369.619 1263.27 373.267C1256.17 376.712 1248.88 379.346 1241.38 381.17C1233.88 382.993 1226.48 383.905 1219.18 383.905Z" fill="white"/>
<path d="M1020.84 383.907C1006.85 383.907 994.287 380.361 983.139 373.268C971.992 365.974 963.176 356.146 956.69 343.785C950.407 331.221 947.266 316.733 947.266 300.319C947.266 284.311 950.407 270.025 956.69 257.462C963.176 244.899 971.891 234.969 982.835 227.675C993.983 220.38 1006.65 216.732 1020.84 216.732C1028.34 216.732 1035.53 217.948 1042.42 220.38C1049.52 222.609 1055.8 225.749 1061.27 229.802C1066.95 233.855 1071.51 238.414 1074.95 243.48C1078.4 248.343 1080.32 253.511 1080.73 258.982L1069.78 260.806V155.941H1112.95V380.867H1072.22L1070.39 343.785L1078.9 344.697C1078.5 349.763 1076.67 354.626 1073.43 359.287C1070.19 363.947 1065.83 368.203 1060.36 372.053C1055.09 375.7 1049.01 378.638 1042.12 380.867C1035.43 382.894 1028.34 383.907 1020.84 383.907ZM1030.57 348.04C1038.67 348.04 1045.77 346.014 1051.85 341.961C1057.93 337.908 1062.69 332.336 1066.14 325.244C1069.58 318.151 1071.3 309.843 1071.3 300.319C1071.3 290.998 1069.58 282.791 1066.14 275.699C1062.69 268.404 1057.93 262.832 1051.85 258.982C1045.77 254.929 1038.67 252.903 1030.57 252.903C1022.46 252.903 1015.37 254.929 1009.28 258.982C1003.41 262.832 998.746 268.404 995.3 275.699C992.057 282.791 990.436 290.998 990.436 300.319C990.436 309.843 992.057 318.151 995.3 325.244C998.746 332.336 1003.41 337.908 1009.28 341.961C1015.37 346.014 1022.46 348.04 1030.57 348.04Z" fill="white"/>
<path d="M832.233 383.905C818.857 383.905 806.797 380.258 796.056 372.963C785.314 365.668 776.801 355.739 770.518 343.175C764.235 330.612 761.094 316.225 761.094 300.014C761.094 283.803 764.235 269.517 770.518 257.156C777.004 244.593 785.719 234.765 796.664 227.673C807.608 220.378 820.073 216.73 834.057 216.73C841.962 216.73 849.157 217.946 855.643 220.378C862.331 222.607 868.107 225.748 872.971 229.801C878.038 233.853 882.295 238.514 885.74 243.782C889.186 249.051 891.618 254.725 893.036 260.804L883.916 259.284V220.074H926.782V380.866H883.308V342.263L893.036 341.352C891.415 347.025 888.78 352.395 885.132 357.461C881.484 362.527 876.924 367.086 871.451 371.139C866.182 374.989 860.203 378.13 853.514 380.562C846.826 382.791 839.732 383.905 832.233 383.905ZM844.09 346.519C852.197 346.519 859.291 344.594 865.371 340.744C871.451 336.894 876.113 331.524 879.356 324.634C882.801 317.542 884.524 309.335 884.524 300.014C884.524 290.895 882.801 282.891 879.356 276.002C876.113 269.112 871.451 263.742 865.371 259.892C859.291 255.839 852.197 253.813 844.09 253.813C836.186 253.813 829.193 255.839 823.113 259.892C817.235 263.742 812.574 269.112 809.128 276.002C805.683 282.891 803.96 290.895 803.96 300.014C803.96 309.335 805.683 317.542 809.128 324.634C812.574 331.524 817.235 336.894 823.113 340.744C829.193 344.594 836.186 346.519 844.09 346.519Z" fill="white"/>
<path d="M689.347 383.905C673.944 383.905 660.162 380.258 648.001 372.963C635.841 365.668 626.213 355.739 619.12 343.175C612.229 330.612 608.783 316.326 608.783 300.318C608.783 284.512 612.229 270.328 619.12 257.764C626.213 244.998 635.841 234.968 648.001 227.673C660.162 220.378 673.944 216.73 689.347 216.73C703.737 216.73 716.911 219.365 728.869 224.633C740.827 229.902 750.15 237.197 756.839 246.518L733.126 275.09C730.288 271.24 726.741 267.795 722.485 264.755C718.229 261.513 713.567 258.98 708.5 257.156C703.636 255.333 698.569 254.421 693.3 254.421C684.99 254.421 677.592 256.447 671.106 260.5C664.823 264.35 659.858 269.72 656.21 276.609C652.561 283.499 650.737 291.402 650.737 300.318C650.737 309.031 652.561 316.833 656.21 323.722C660.061 330.409 665.229 335.88 671.714 340.136C678.2 344.189 685.496 346.215 693.604 346.215C698.873 346.215 703.839 345.506 708.5 344.087C713.162 342.466 717.519 340.136 721.573 337.096C725.829 334.057 729.68 330.409 733.126 326.154L756.535 354.726C749.644 363.439 740.118 370.531 727.957 376.002C715.797 381.271 702.927 383.905 689.347 383.905Z" fill="white"/>
<path d="M399.062 378.338L482.363 165.57H523.101L606.097 378.338H559.279L516.413 263.747C515.196 260.505 513.676 256.351 511.852 251.285C510.231 246.219 508.508 240.85 506.684 235.176C504.86 229.502 503.137 224.132 501.516 219.066C499.894 213.798 498.678 209.441 497.868 205.996L506.076 205.692C504.86 210.353 503.441 215.216 501.82 220.282C500.401 225.145 498.881 230.211 497.26 235.48C495.638 240.546 493.915 245.51 492.091 250.373C490.267 255.237 488.544 259.999 486.923 264.659L444.057 378.338H399.062ZM437.672 333.657L452.569 296.878H550.158L565.359 333.657H437.672Z" fill="white"/>
<path d="M513.654 95.7979V1H531.263V95.7979H513.654ZM452.836 95.7979V1H470.445V95.7979H452.836ZM460.15 56.7953V40.2734H522.188V56.7953H460.15Z" fill="white"/>
<path d="M561.954 126.946L577.125 91.8705L577.26 102.975L542.042 24.4286H561.277L580.917 71.015C581.549 72.1887 582.182 73.7686 582.814 75.7549C583.446 77.6508 583.988 79.5468 584.439 81.4428L581.053 82.5262C581.685 80.8108 582.362 79.0051 583.085 77.1091C583.807 75.1229 584.484 73.0915 585.116 71.015L601.913 24.4286H621.282L591.483 95.7979L579.292 126.946H561.954Z" fill="white"/>
<path d="M628.966 125.591V24.4286H645.356L645.627 40.6797L642.782 39.4608C643.324 36.6621 644.859 34.0438 647.388 31.6062C649.916 29.0782 652.986 27.0468 656.598 25.512C660.301 23.9772 664.139 23.2098 668.112 23.2098C674.433 23.2098 680.032 24.7897 684.908 27.9497C689.875 31.1096 693.758 35.4432 696.557 40.9505C699.447 46.4578 700.892 52.8228 700.892 60.0455C700.892 67.1779 699.447 73.5429 696.557 79.1405C693.758 84.6478 689.875 89.0266 684.908 92.2768C680.032 95.4367 674.523 97.0167 668.383 97.0167C664.229 97.0167 660.211 96.2041 656.328 94.579C652.535 92.9539 649.284 90.8323 646.575 88.214C643.956 85.5958 642.331 82.8422 641.699 79.9531L645.762 78.0571V125.591H628.966ZM664.997 82.2553C668.789 82.2553 672.176 81.3073 675.156 79.4114C678.135 77.5154 680.438 74.8972 682.064 71.5567C683.779 68.2162 684.637 64.3791 684.637 60.0455C684.637 55.7119 683.824 51.92 682.199 48.6698C680.574 45.3293 678.271 42.7111 675.291 40.8151C672.311 38.9191 668.88 37.9712 664.997 37.9712C661.023 37.9712 657.547 38.9191 654.567 40.8151C651.677 42.6208 649.374 45.1939 647.659 48.5344C645.943 51.8749 645.085 55.7119 645.085 60.0455C645.085 64.3791 645.943 68.2162 647.659 71.5567C649.374 74.8972 651.677 77.5154 654.567 79.4114C657.547 81.3073 661.023 82.2553 664.997 82.2553Z" fill="white"/>
<path d="M746.488 97.1521C738.993 97.1521 732.356 95.5721 726.577 92.4122C720.888 89.2523 716.418 84.9638 713.167 79.5468C710.006 74.0395 708.426 67.7648 708.426 60.7227C708.426 55.1251 709.329 50.024 711.135 45.4196C712.941 40.8151 715.425 36.8426 718.585 33.5021C721.836 30.0713 725.674 27.4531 730.099 25.6474C734.614 23.7515 739.535 22.8035 744.863 22.8035C749.559 22.8035 753.938 23.7063 758.002 25.512C762.066 27.3177 765.587 29.8005 768.567 32.9604C771.547 36.0301 773.805 39.7317 775.34 44.0653C776.965 48.3086 777.733 52.9583 777.643 58.0141L777.507 63.8374H719.669L716.553 52.4617H763.555L761.388 54.7639V51.7846C761.117 48.9858 760.214 46.5481 758.679 44.4716C757.144 42.3048 755.157 40.6345 752.719 39.4608C750.371 38.1969 747.753 37.5649 744.863 37.5649C740.438 37.5649 736.691 38.4226 733.62 40.138C730.64 41.8534 728.383 44.3362 726.848 47.5864C725.313 50.7463 724.545 54.7188 724.545 59.5038C724.545 64.1083 725.493 68.1259 727.39 71.5567C729.376 74.9875 732.13 77.6508 735.652 79.5468C739.264 81.3525 743.463 82.2553 748.249 82.2553C751.59 82.2553 754.661 81.7136 757.46 80.6302C760.259 79.5468 763.285 77.6057 766.535 74.8069L774.798 86.3181C772.36 88.5752 769.561 90.5163 766.4 92.1414C763.33 93.6762 760.079 94.895 756.647 95.7979C753.216 96.7007 749.83 97.1521 746.488 97.1521Z" fill="white"/>
<path d="M789.689 95.7979V24.4286H806.079L806.35 47.1801L804.047 42.0339C805.041 38.4226 806.757 35.1724 809.195 32.2833C811.633 29.3942 814.432 27.1371 817.593 25.512C820.844 23.7966 824.23 22.9389 827.752 22.9389C829.287 22.9389 830.732 23.0744 832.086 23.3452C833.531 23.6161 834.705 23.9321 835.608 24.2932L831.138 42.5756C830.145 42.0339 828.926 41.5825 827.481 41.2214C826.036 40.8602 824.591 40.6797 823.146 40.6797C820.889 40.6797 818.722 41.1311 816.645 42.0339C814.658 42.8465 812.897 44.0202 811.362 45.555C809.827 47.0898 808.608 48.8955 807.705 50.972C806.892 52.9583 806.486 55.2153 806.486 57.7433V95.7979H789.689Z" fill="white"/>
<path d="M874.469 95.7979L836.542 1H855.777L876.907 55.3056C877.991 58.1044 878.939 60.6324 879.752 62.8895C880.565 65.0563 881.287 67.0425 881.919 68.8482C882.551 70.6539 883.093 72.4144 883.545 74.1298C884.086 75.8452 884.673 77.6508 885.305 79.5468H881.513C882.145 77.1091 882.822 74.7166 883.545 72.3692C884.267 69.9316 885.08 67.3585 885.983 64.65C886.976 61.9415 888.15 58.8267 889.504 55.3056L909.281 1H928.65L890.453 95.7979H874.469Z" fill="white"/>
<path d="M963.367 97.1521C955.872 97.1521 949.234 95.5721 943.455 92.4122C937.766 89.2523 933.296 84.9638 930.045 79.5468C926.885 74.0395 925.304 67.7648 925.304 60.7227C925.304 55.1251 926.207 50.024 928.013 45.4196C929.819 40.8151 932.303 36.8426 935.463 33.5021C938.714 30.0713 942.552 27.4531 946.977 25.6474C951.492 23.7515 956.413 22.8035 961.741 22.8035C966.437 22.8035 970.817 23.7063 974.88 25.512C978.944 27.3177 982.465 29.8005 985.445 32.9604C988.425 36.0301 990.683 39.7317 992.218 44.0653C993.844 48.3086 994.611 52.9583 994.521 58.0141L994.385 63.8374H936.547L933.432 52.4617H980.434L978.266 54.7639V51.7846C977.996 48.9858 977.092 46.5481 975.557 44.4716C974.022 42.3048 972.036 40.6345 969.597 39.4608C967.25 38.1969 964.631 37.5649 961.741 37.5649C957.316 37.5649 953.569 38.4226 950.499 40.138C947.519 41.8534 945.261 44.3362 943.726 47.5864C942.191 50.7463 941.423 54.7188 941.423 59.5038C941.423 64.1083 942.371 68.1259 944.268 71.5567C946.254 74.9875 949.009 77.6508 952.53 79.5468C956.142 81.3525 960.341 82.2553 965.127 82.2553C968.469 82.2553 971.539 81.7136 974.338 80.6302C977.138 79.5468 980.163 77.6057 983.414 74.8069L991.676 86.3181C989.238 88.5752 986.439 90.5163 983.278 92.1414C980.208 93.6762 976.957 94.895 973.526 95.7979C970.094 96.7007 966.708 97.1521 963.367 97.1521Z" fill="white"/>
<path d="M1006.57 95.7979V24.4286H1022.96L1023.23 47.1801L1020.93 42.0339C1021.92 38.4226 1023.63 35.1724 1026.07 32.2833C1028.51 29.3942 1031.31 27.1371 1034.47 25.512C1037.72 23.7966 1041.11 22.9389 1044.63 22.9389C1046.17 22.9389 1047.61 23.0744 1048.96 23.3452C1050.41 23.6161 1051.58 23.9321 1052.49 24.2932L1048.02 42.5756C1047.02 42.0339 1045.8 41.5825 1044.36 41.2214C1042.91 40.8602 1041.47 40.6797 1040.02 40.6797C1037.77 40.6797 1035.6 41.1311 1033.52 42.0339C1031.54 42.8465 1029.78 44.0202 1028.24 45.555C1026.7 47.0898 1025.49 48.8955 1024.58 50.972C1023.77 52.9583 1023.36 55.2153 1023.36 57.7433V95.7979H1006.57Z" fill="white"/>
<path d="M1090.99 126.946C1085.66 126.946 1080.33 126.133 1075.01 124.508C1069.77 122.883 1065.52 120.761 1062.27 118.143L1068.23 105.819C1070.13 107.174 1072.25 108.347 1074.6 109.34C1076.95 110.334 1079.43 111.101 1082.05 111.643C1084.76 112.184 1087.42 112.455 1090.04 112.455C1094.83 112.455 1098.8 111.688 1101.96 110.153C1105.21 108.708 1107.65 106.451 1109.27 103.382C1110.9 100.402 1111.71 96.6556 1111.71 92.1414V79.0051L1114.15 79.9531C1113.61 82.7519 1112.12 85.4152 1109.68 87.9432C1107.24 90.4711 1104.17 92.5476 1100.47 94.1728C1096.77 95.7076 1092.98 96.475 1089.09 96.475C1082.32 96.475 1076.31 94.895 1071.08 91.7351C1065.93 88.5752 1061.82 84.2867 1058.75 78.8697C1055.77 73.3624 1054.28 67.0425 1054.28 59.9101C1054.28 52.7777 1055.77 46.4578 1058.75 40.9505C1061.73 35.3529 1065.79 30.9742 1070.94 27.8143C1076.18 24.564 1082.05 22.9389 1088.55 22.9389C1091.26 22.9389 1093.88 23.2549 1096.41 23.8869C1098.94 24.5189 1101.24 25.4217 1103.31 26.5954C1105.48 27.7691 1107.42 29.0782 1109.14 30.5228C1110.86 31.9673 1112.25 33.5021 1113.34 35.1272C1114.42 36.7523 1115.1 38.3323 1115.37 39.8671L1111.85 40.9505L1112.12 24.4286H1128.51V90.9225C1128.51 96.7007 1127.65 101.802 1125.94 106.226C1124.22 110.65 1121.74 114.396 1118.49 117.466C1115.23 120.626 1111.31 122.973 1106.7 124.508C1102.1 126.133 1096.86 126.946 1090.99 126.946ZM1091.67 82.2553C1095.73 82.2553 1099.3 81.3073 1102.37 79.4114C1105.53 77.5154 1107.97 74.8972 1109.68 71.5567C1111.4 68.2162 1112.25 64.3791 1112.25 60.0455C1112.25 55.6216 1111.35 51.7394 1109.55 48.3989C1107.83 44.9682 1105.44 42.3048 1102.37 40.4088C1099.3 38.5129 1095.73 37.5649 1091.67 37.5649C1087.6 37.5649 1084.04 38.558 1080.97 40.5442C1077.89 42.4402 1075.46 45.1036 1073.65 48.5344C1071.93 51.8749 1071.08 55.7119 1071.08 60.0455C1071.08 64.2889 1071.93 68.1259 1073.65 71.5567C1075.46 74.8972 1077.89 77.5154 1080.97 79.4114C1084.04 81.3073 1087.6 82.2553 1091.67 82.2553Z" fill="white"/>
<path d="M1178.53 97.1521C1171.03 97.1521 1164.39 95.5721 1158.61 92.4122C1152.92 89.2523 1148.45 84.9638 1145.2 79.5468C1142.04 74.0395 1140.46 67.7648 1140.46 60.7227C1140.46 55.1251 1141.37 50.024 1143.17 45.4196C1144.98 40.8151 1147.46 36.8426 1150.62 33.5021C1153.87 30.0713 1157.71 27.4531 1162.14 25.6474C1166.65 23.7515 1171.57 22.8035 1176.9 22.8035C1181.6 22.8035 1185.98 23.7063 1190.04 25.512C1194.1 27.3177 1197.62 29.8005 1200.6 32.9604C1203.58 36.0301 1205.84 39.7317 1207.38 44.0653C1209 48.3086 1209.77 52.9583 1209.68 58.0141L1209.54 63.8374H1151.71L1148.59 52.4617H1195.59L1193.42 54.7639V51.7846C1193.15 48.9858 1192.25 46.5481 1190.72 44.4716C1189.18 42.3048 1187.19 40.6345 1184.76 39.4608C1182.41 38.1969 1179.79 37.5649 1176.9 37.5649C1172.47 37.5649 1168.73 38.4226 1165.66 40.138C1162.68 41.8534 1160.42 44.3362 1158.88 47.5864C1157.35 50.7463 1156.58 54.7188 1156.58 59.5038C1156.58 64.1083 1157.53 68.1259 1159.43 71.5567C1161.41 74.9875 1164.17 77.6508 1167.69 79.5468C1171.3 81.3525 1175.5 82.2553 1180.29 82.2553C1183.63 82.2553 1186.7 81.7136 1189.5 80.6302C1192.3 79.5468 1195.32 77.6057 1198.57 74.8069L1206.83 86.3181C1204.4 88.5752 1201.6 90.5163 1198.44 92.1414C1195.37 93.6762 1192.12 94.895 1188.68 95.7979C1185.25 96.7007 1181.87 97.1521 1178.53 97.1521Z" fill="white"/>
</svg>
