<svg width="391" height="500" viewBox="0 0 391 500" fill="none" xmlns="http://www.w3.org/2000/svg">
<path d="M0.207031 485.853V14.1553C0.207031 6.33968 6.62653 0.00390625 14.5454 0.00390625H65.4923C73.4111 0.00390625 79.8306 6.33967 79.8306 14.1552V370.139V410.443V485.853C79.8306 493.668 73.4111 500.004 65.4923 500.004H14.5454C6.62652 500.004 0.207031 493.668 0.207031 485.853Z" fill="black"/>
<path d="M311.35 334.983C310.404 335.82 309.857 337.017 309.857 338.268V485.905C309.857 493.692 316.277 500.004 324.196 500.004H375.143C383.061 500.004 389.481 493.692 389.481 485.905V249.827C389.481 245.15 382.377 244.221 380.473 248.867C366.265 283.557 342.407 311.136 311.35 334.983Z" fill="black"/>
<path d="M389.481 75.7131C389.481 78.729 386.468 80.8547 383.539 79.96C361.608 73.2606 338.383 69.454 314.33 68.9929C311.859 68.9456 309.857 66.9785 309.857 64.5485V14.1026C309.857 6.31613 316.277 0.00390625 324.196 0.00390625H375.143C383.062 0.00390625 389.481 6.31612 389.481 14.1026V75.7131Z" fill="black"/>
<path d="M100.917 331.182C123.241 340.761 149.366 348.772 174.843 350.316C311.148 353.462 392 235.062 388.901 106.719C234.706 54.0837 100.917 176.71 100.917 331.182Z" fill="#5BAE5B"/>
<path fill-rule="evenodd" clip-rule="evenodd" d="M119.257 320.456C136.505 326.634 156.784 331.185 175.922 332.344C287.126 332.344 367.685 239.136 374.531 124.962C244.829 78.629 126.755 188.182 119.257 320.456ZM388.901 106.719C392 235.062 311.148 353.462 174.843 350.316C149.366 348.772 123.241 340.761 100.917 331.182C94.983 172.399 234.798 53.5313 388.901 106.719Z" fill="black"/>
<path fill-rule="evenodd" clip-rule="evenodd" d="M304.6 170.913C305.354 169.552 303.566 168.305 302.516 169.453C236.386 241.735 156.945 293.264 113.355 310.491L126.568 333.085C170.916 311.239 255.233 259.956 304.6 170.913Z" fill="black"/>
</svg>
