<svg width="1746" height="450" viewBox="0 0 1746 450" fill="none" xmlns="http://www.w3.org/2000/svg">
<path d="M1606.86 450.006L1642.12 367.288L1642.73 392.225L1564.29 219.188H1613.24L1652.46 311.94C1654.08 315.387 1655.6 319.442 1657.02 324.105C1658.64 328.565 1659.96 332.924 1660.97 337.181L1653.68 340.223C1654.89 336.776 1656.31 332.823 1657.93 328.362C1659.55 323.902 1661.17 319.138 1662.8 314.069L1696.54 219.188H1745.79L1678.3 380.061L1650.64 450.006H1606.86Z" fill="black"/>
<path d="M1309.12 380.063V219.19H1350.77L1351.68 249.904L1345.3 251.121C1347.53 245.85 1350.47 241.085 1354.11 236.828C1357.76 232.57 1362.02 228.921 1366.88 225.88C1371.95 222.839 1377.22 220.507 1382.69 218.885C1388.16 217.061 1393.64 216.148 1399.11 216.148C1407.42 216.148 1414.92 217.466 1421.61 220.102C1428.3 222.737 1433.97 226.894 1438.63 232.57C1443.29 238.044 1446.94 245.343 1449.58 254.466L1442.89 253.858L1445.02 248.992C1447.65 244.126 1451 239.768 1455.05 235.915C1459.1 231.861 1463.66 228.414 1468.73 225.576C1473.8 222.535 1479.07 220.203 1484.54 218.581C1490.01 216.959 1495.38 216.148 1500.65 216.148C1513.22 216.148 1523.66 218.683 1531.97 223.751C1540.28 228.617 1546.46 236.017 1550.51 245.951C1554.77 255.885 1556.9 268.05 1556.9 282.444V380.063H1513.73V285.485C1513.73 278.186 1512.71 272.206 1510.69 267.543C1508.66 262.88 1505.72 259.433 1501.87 257.203C1498.02 254.77 1493.05 253.554 1486.97 253.554C1482.31 253.554 1477.95 254.365 1473.9 255.987C1470.05 257.406 1466.6 259.535 1463.56 262.373C1460.72 265.008 1458.5 268.151 1456.87 271.8C1455.25 275.45 1454.44 279.504 1454.44 283.965V380.063H1411.27V285.181C1411.27 278.491 1410.16 272.814 1407.93 268.151C1405.9 263.285 1402.96 259.636 1399.11 257.203C1395.26 254.77 1390.5 253.554 1384.82 253.554C1380.16 253.554 1375.8 254.365 1371.75 255.987C1367.9 257.406 1364.55 259.535 1361.71 262.373C1358.88 265.008 1356.55 268.151 1354.72 271.8C1353.1 275.45 1352.29 279.403 1352.29 283.66V380.063H1309.12Z" fill="black"/>
<path d="M1219.75 383.103C1202.32 383.103 1187.12 379.555 1174.15 372.459C1161.17 365.364 1151.04 355.632 1143.74 343.265C1136.45 330.898 1132.8 316.706 1132.8 300.69C1132.8 288.323 1134.83 276.97 1138.88 266.63C1142.93 256.29 1148.61 247.37 1155.9 239.868C1163.2 232.164 1171.82 226.285 1181.75 222.23C1191.88 217.973 1202.83 215.844 1214.58 215.844C1225.53 215.844 1235.66 217.871 1244.98 221.926C1254.31 225.778 1262.31 231.353 1269 238.652C1275.89 245.748 1281.16 254.161 1284.81 263.893C1288.46 273.624 1290.08 284.268 1289.67 295.824L1289.37 309.205H1160.16L1153.17 282.748H1253.8L1248.94 288.222V281.531C1248.53 276.057 1246.71 271.09 1243.46 266.63C1240.42 262.17 1236.47 258.723 1231.61 256.29C1226.74 253.857 1221.27 252.641 1215.19 252.641C1206.27 252.641 1198.67 254.364 1192.39 257.811C1186.31 261.257 1181.64 266.326 1178.4 273.016C1175.16 279.706 1173.54 287.816 1173.54 297.345C1173.54 307.076 1175.56 315.49 1179.62 322.586C1183.87 329.682 1189.75 335.257 1197.25 339.312C1204.95 343.164 1213.97 345.09 1224.31 345.09C1231.4 345.09 1237.89 343.975 1243.77 341.745C1249.64 339.514 1255.93 335.662 1262.62 330.188L1283.29 359.079C1277.41 364.35 1270.93 368.81 1263.83 372.459C1256.74 375.906 1249.44 378.542 1241.94 380.366C1234.44 382.191 1227.05 383.103 1219.75 383.103Z" fill="black"/>
<path d="M1021.4 383.104C1007.41 383.104 994.846 379.557 983.699 372.461C972.551 365.162 963.735 355.329 957.249 342.962C950.966 330.392 947.824 315.897 947.824 299.475C947.824 283.458 950.966 269.165 957.249 256.596C963.735 244.026 972.45 234.092 983.395 226.793C994.542 219.494 1007.21 215.845 1021.4 215.845C1028.9 215.845 1036.09 217.061 1042.98 219.494C1050.08 221.724 1056.36 224.867 1061.83 228.922C1067.51 232.976 1072.07 237.538 1075.51 242.607C1078.96 247.472 1080.88 252.642 1081.29 258.116L1070.35 259.941V155.023H1113.52V380.063H1072.78L1070.95 342.962L1079.47 343.875C1079.06 348.943 1077.24 353.809 1073.99 358.472C1070.75 363.135 1066.39 367.392 1060.92 371.244C1055.65 374.894 1049.57 377.833 1042.68 380.063C1035.99 382.091 1028.9 383.104 1021.4 383.104ZM1031.13 347.22C1039.23 347.22 1046.33 345.192 1052.41 341.138C1058.49 337.083 1063.25 331.507 1066.7 324.412C1070.14 317.316 1071.87 309.003 1071.87 299.475C1071.87 290.149 1070.14 281.938 1066.7 274.842C1063.25 267.543 1058.49 261.968 1052.41 258.116C1046.33 254.061 1039.23 252.034 1031.13 252.034C1023.02 252.034 1015.93 254.061 1009.84 258.116C1003.97 261.968 999.305 267.543 995.86 274.842C992.617 281.938 990.995 290.149 990.995 299.475C990.995 309.003 992.617 317.316 995.86 324.412C999.305 331.507 1003.97 337.083 1009.84 341.138C1015.93 345.192 1023.02 347.22 1031.13 347.22Z" fill="black"/>
<path d="M832.791 383.103C819.414 383.103 807.355 379.454 796.613 372.155C785.871 364.857 777.358 354.923 771.075 342.353C764.792 329.783 761.65 315.389 761.65 299.169C761.65 282.95 764.792 268.657 771.075 256.29C777.561 243.72 786.276 233.888 797.221 226.792C808.166 219.493 820.631 215.844 834.616 215.844C842.52 215.844 849.715 217.06 856.201 219.493C862.89 221.723 868.666 224.866 873.53 228.92C878.597 232.975 882.854 237.638 886.299 242.909C889.745 248.181 892.177 253.857 893.596 259.939L884.475 258.419V219.189H927.342V380.062H883.867V341.44L893.596 340.528C891.974 346.205 889.34 351.577 885.691 356.646C882.043 361.714 877.483 366.276 872.01 370.331C866.741 374.183 860.761 377.325 854.073 379.758C847.385 381.988 840.291 383.103 832.791 383.103ZM844.648 345.698C852.756 345.698 859.849 343.772 865.93 339.92C872.01 336.068 876.672 330.695 879.915 323.802C883.36 316.706 885.083 308.495 885.083 299.169C885.083 290.046 883.36 282.038 879.915 275.145C876.672 268.252 872.01 262.879 865.93 259.027C859.849 254.972 852.756 252.945 844.648 252.945C836.744 252.945 829.751 254.972 823.671 259.027C817.793 262.879 813.131 268.252 809.686 275.145C806.24 282.038 804.517 290.046 804.517 299.169C804.517 308.495 806.24 316.706 809.686 323.802C813.131 330.695 817.793 336.068 823.671 339.92C829.751 343.772 836.744 345.698 844.648 345.698Z" fill="black"/>
<path d="M689.902 383.103C674.498 383.103 660.716 379.454 648.555 372.155C636.394 364.857 626.767 354.923 619.673 342.353C612.782 329.783 609.336 315.49 609.336 299.473C609.336 283.66 612.782 269.468 619.673 256.898C626.767 244.126 636.394 234.09 648.555 226.792C660.716 219.493 674.498 215.844 689.902 215.844C704.292 215.844 717.466 218.479 729.425 223.751C741.383 229.022 750.706 236.32 757.395 245.646L733.681 274.233C730.843 270.381 727.296 266.934 723.04 263.893C718.784 260.649 714.122 258.115 709.055 256.29C704.191 254.465 699.124 253.553 693.854 253.553C685.544 253.553 678.146 255.581 671.66 259.635C665.377 263.487 660.412 268.86 656.763 275.753C653.115 282.646 651.291 290.553 651.291 299.473C651.291 308.191 653.115 315.997 656.763 322.89C660.614 329.58 665.783 335.054 672.268 339.312C678.754 343.366 686.051 345.394 694.158 345.394C699.428 345.394 704.393 344.684 709.055 343.265C713.717 341.643 718.074 339.312 722.128 336.271C726.384 333.23 730.235 329.58 733.681 325.323L757.091 353.909C750.199 362.627 740.673 369.723 728.513 375.196C716.352 380.468 703.481 383.103 689.902 383.103Z" fill="black"/>
<path d="M399.611 377.532L482.913 164.656H523.652L606.65 377.532H559.831L516.964 262.883C515.748 259.639 514.228 255.483 512.403 250.415C510.782 245.346 509.059 239.974 507.235 234.297C505.411 228.62 503.688 223.248 502.067 218.179C500.445 212.908 499.229 208.549 498.418 205.103L506.627 204.799C505.411 209.462 503.992 214.327 502.371 219.396C500.952 224.261 499.432 229.33 497.81 234.601C496.189 239.67 494.466 244.637 492.642 249.502C490.818 254.368 489.095 259.132 487.474 263.795L444.607 377.532H399.611ZM438.222 332.828L453.119 296.031H550.71L565.911 332.828H438.222Z" fill="black"/>
<path d="M514.208 94.8498V0.00390625H531.818V94.8498H514.208ZM453.389 94.8498V0.00390625H470.998V94.8498H453.389ZM460.703 55.8275V39.2972H522.742V55.8275H460.703Z" fill="black"/>
<path d="M562.509 126.014L577.68 90.9205L577.815 102.031L542.597 23.4444H561.832L581.473 70.0544C582.105 71.2287 582.737 72.8095 583.369 74.7967C584.001 76.6936 584.543 78.5905 584.994 80.4875L581.608 81.5714C582.24 79.8552 582.917 78.0486 583.64 76.1517C584.362 74.1644 585.04 72.132 585.672 70.0544L602.468 23.4444H621.838L592.038 94.8498L579.847 126.014H562.509Z" fill="black"/>
<path d="M629.522 124.659V23.4444H645.913L646.183 39.7037L643.339 38.4843C643.881 35.684 645.416 33.0645 647.944 30.6256C650.473 28.0964 653.543 26.064 657.155 24.5284C660.858 22.9928 664.696 22.225 668.669 22.225C674.99 22.225 680.589 23.8057 685.466 26.9673C690.432 30.1288 694.315 34.4646 697.115 39.9747C700.004 45.4848 701.449 51.853 701.449 59.0794C701.449 66.2154 700.004 72.5836 697.115 78.1841C694.315 83.6942 690.432 88.0751 685.466 91.327C680.589 94.4885 675.081 96.0693 668.94 96.0693C664.786 96.0693 660.767 95.2563 656.884 93.6304C653.092 92.0045 649.841 89.8817 647.132 87.2622C644.513 84.6426 642.887 81.8876 642.255 78.997L646.319 77.1001V124.659H629.522ZM665.554 81.3004C669.346 81.3004 672.733 80.352 675.713 78.455C678.693 76.5581 680.996 73.9386 682.621 70.5964C684.337 67.2542 685.195 63.4152 685.195 59.0794C685.195 54.7436 684.382 50.9497 682.756 47.6979C681.131 44.3557 678.828 41.7361 675.848 39.8392C672.868 37.9423 669.437 36.9938 665.554 36.9938C661.58 36.9938 658.104 37.9423 655.124 39.8392C652.234 41.6458 649.931 44.2202 648.215 47.5624C646.499 50.9046 645.642 54.7436 645.642 59.0794C645.642 63.4152 646.499 67.2542 648.215 70.5964C649.931 73.9386 652.234 76.5581 655.124 78.455C658.104 80.352 661.58 81.3004 665.554 81.3004Z" fill="black"/>
<path d="M747.047 96.2048C739.552 96.2048 732.915 94.624 727.135 91.4625C721.446 88.301 716.976 84.0103 713.725 78.5905C710.564 73.0804 708.984 66.8025 708.984 59.7569C708.984 54.1564 709.887 49.0528 711.693 44.446C713.499 39.8392 715.983 35.8647 719.143 32.5225C722.394 29.09 726.232 26.4704 730.657 24.6639C735.172 22.7669 740.094 21.8185 745.422 21.8185C750.117 21.8185 754.497 22.7218 758.561 24.5284C762.625 26.3349 766.146 28.819 769.126 31.9805C772.106 35.0517 774.364 38.7552 775.899 43.0911C777.525 47.3365 778.292 51.9885 778.202 57.047L778.066 62.8732H720.227L717.111 51.4917H764.115L761.947 53.7951V50.8142C761.676 48.014 760.773 45.5751 759.238 43.4975C757.703 41.3296 755.716 39.6585 753.278 38.4843C750.93 37.2196 748.311 36.5873 745.422 36.5873C740.997 36.5873 737.249 37.4455 734.179 39.1617C731.199 40.878 728.941 43.3621 727.406 46.6139C725.871 49.7754 725.103 53.7499 725.103 58.5374C725.103 63.1442 726.051 67.1639 727.948 70.5964C729.935 74.0289 732.689 76.6936 736.211 78.5905C739.823 80.3971 744.022 81.3004 748.808 81.3004C752.149 81.3004 755.22 80.7584 758.019 79.6745C760.818 78.5905 763.844 76.6485 767.095 73.8482L775.357 85.3653C772.919 87.6235 770.12 89.5656 766.959 91.1915C763.889 92.7271 760.638 93.9466 757.206 94.8498C753.775 95.7531 750.388 96.2048 747.047 96.2048Z" fill="black"/>
<path d="M790.249 94.8498V23.4444H806.639L806.91 46.2074L804.607 41.0587C805.601 37.4455 807.316 34.1936 809.755 31.3031C812.193 28.4125 814.992 26.1543 818.153 24.5284C821.404 22.8121 824.79 21.954 828.312 21.954C829.847 21.954 831.292 22.0895 832.647 22.3604C834.092 22.6314 835.265 22.9476 836.169 23.3089L831.699 41.6006C830.705 41.0587 829.486 40.607 828.041 40.2457C826.596 39.8844 825.151 39.7037 823.707 39.7037C821.449 39.7037 819.282 40.1554 817.205 41.0587C815.218 41.8716 813.457 43.0459 811.922 44.5815C810.387 46.1171 809.168 47.9237 808.265 50.0013C807.452 51.9885 807.046 54.2467 807.046 56.776V94.8498H790.249Z" fill="black"/>
<path d="M875.031 94.8498L837.103 0.00390625H856.338L877.469 54.3371C878.552 57.1373 879.501 59.6665 880.313 61.9248C881.126 64.0927 881.848 66.0799 882.481 67.8865C883.113 69.6931 883.655 71.4545 884.106 73.1708C884.648 74.887 885.235 76.6936 885.867 78.5905H882.074C882.706 76.1516 883.384 73.7579 884.106 71.4093C884.829 68.9705 885.641 66.3961 886.544 63.6862C887.538 60.9763 888.712 57.8599 890.066 54.3371L909.843 0.00390625H929.213L891.014 94.8498H875.031Z" fill="black"/>
<path d="M963.93 96.2048C956.435 96.2048 949.797 94.624 944.018 91.4625C938.329 88.301 933.859 84.0103 930.608 78.5905C927.447 73.0804 925.867 66.8025 925.867 59.7569C925.867 54.1564 926.77 49.0528 928.576 44.446C930.382 39.8392 932.865 35.8647 936.026 32.5225C939.277 29.09 943.115 26.4704 947.54 24.6639C952.055 22.7669 956.976 21.8185 962.304 21.8185C967 21.8185 971.38 22.7218 975.443 24.5284C979.507 26.3349 983.029 28.819 986.009 31.9805C988.989 35.0517 991.247 38.7552 992.782 43.0911C994.407 47.3365 995.175 51.9885 995.085 57.047L994.949 62.8732H937.109L933.994 51.4917H980.997L978.83 53.7951V50.8142C978.559 48.014 977.656 45.5751 976.121 43.4975C974.586 41.3296 972.599 39.6585 970.161 38.4843C967.813 37.2196 965.194 36.5873 962.304 36.5873C957.879 36.5873 954.132 37.4455 951.061 39.1617C948.081 40.878 945.824 43.3621 944.289 46.6139C942.754 49.7754 941.986 53.7499 941.986 58.5374C941.986 63.1442 942.934 67.1639 944.831 70.5964C946.817 74.0289 949.571 76.6936 953.093 78.5905C956.705 80.3971 960.905 81.3004 965.691 81.3004C969.032 81.3004 972.102 80.7584 974.902 79.6745C977.701 78.5905 980.726 76.6485 983.977 73.8482L992.24 85.3653C989.802 87.6235 987.002 89.5656 983.842 91.1915C980.771 92.7271 977.52 93.9466 974.089 94.8498C970.657 95.7531 967.271 96.2048 963.93 96.2048Z" fill="black"/>
<path d="M1007.13 94.8498V23.4444H1023.52L1023.79 46.2074L1021.49 41.0587C1022.48 37.4455 1024.2 34.1936 1026.64 31.3031C1029.08 28.4125 1031.87 26.1543 1035.04 24.5284C1038.29 22.8121 1041.67 21.954 1045.19 21.954C1046.73 21.954 1048.17 22.0895 1049.53 22.3604C1050.97 22.6314 1052.15 22.9476 1053.05 23.3089L1048.58 41.6006C1047.59 41.0587 1046.37 40.607 1044.92 40.2457C1043.48 39.8844 1042.03 39.7037 1040.59 39.7037C1038.33 39.7037 1036.16 40.1554 1034.09 41.0587C1032.1 41.8716 1030.34 43.0459 1028.8 44.5815C1027.27 46.1171 1026.05 47.9237 1025.15 50.0013C1024.33 51.9885 1023.93 54.2467 1023.93 56.776V94.8498H1007.13Z" fill="black"/>
<path d="M1091.55 126.014C1086.23 126.014 1080.9 125.201 1075.57 123.575C1070.33 121.949 1066.09 119.826 1062.84 117.206L1068.8 104.876C1070.69 106.231 1072.82 107.406 1075.16 108.399C1077.51 109.393 1080 110.161 1082.61 110.703C1085.32 111.245 1087.99 111.516 1090.61 111.516C1095.39 111.516 1099.37 110.748 1102.53 109.212C1105.78 107.767 1108.22 105.509 1109.84 102.438C1111.47 99.4566 1112.28 95.708 1112.28 91.1915V78.0486L1114.72 78.997C1114.18 81.7972 1112.69 84.462 1110.25 86.9912C1107.81 89.5204 1104.74 91.598 1101.04 93.2239C1097.33 94.7595 1093.54 95.5273 1089.66 95.5273C1082.89 95.5273 1076.88 93.9465 1071.64 90.785C1066.5 87.6235 1062.39 83.3328 1059.32 77.9131C1056.34 72.403 1054.85 66.0799 1054.85 58.9439C1054.85 51.8079 1056.34 45.4848 1059.32 39.9747C1062.3 34.3743 1066.36 29.9933 1071.51 26.8318C1076.74 23.5799 1082.61 21.954 1089.12 21.954C1091.83 21.954 1094.44 22.2701 1096.97 22.9024C1099.5 23.5347 1101.8 24.438 1103.88 25.6123C1106.05 26.7866 1107.99 28.0964 1109.71 29.5416C1111.42 30.9869 1112.82 32.5225 1113.9 34.1484C1114.99 35.7744 1115.67 37.3551 1115.94 38.8907L1112.41 39.9747L1112.69 23.4444H1129.08V89.972C1129.08 95.7531 1128.22 100.857 1126.5 105.283C1124.79 109.709 1122.3 113.458 1119.05 116.529C1115.8 119.69 1111.87 122.039 1107.27 123.575C1102.66 125.201 1097.42 126.014 1091.55 126.014ZM1092.23 81.3004C1096.3 81.3004 1099.86 80.352 1102.93 78.455C1106.09 76.5581 1108.53 73.9386 1110.25 70.5964C1111.96 67.2542 1112.82 63.4152 1112.82 59.0794C1112.82 54.6532 1111.92 50.7691 1110.11 47.4269C1108.4 43.9944 1106 41.3296 1102.93 39.4327C1099.86 37.5358 1096.3 36.5873 1092.23 36.5873C1088.17 36.5873 1084.6 37.581 1081.53 39.5682C1078.46 41.4651 1076.02 44.1299 1074.22 47.5624C1072.5 50.9046 1071.64 54.7436 1071.64 59.0794C1071.64 63.3249 1072.5 67.1639 1074.22 70.5964C1076.02 73.9386 1078.46 76.5581 1081.53 78.455C1084.6 80.352 1088.17 81.3004 1092.23 81.3004Z" fill="black"/>
<path d="M1179.09 96.2048C1171.6 96.2048 1164.96 94.624 1159.18 91.4625C1153.49 88.301 1149.02 84.0103 1145.77 78.5905C1142.61 73.0804 1141.03 66.8025 1141.03 59.7569C1141.03 54.1564 1141.93 49.0528 1143.74 44.446C1145.54 39.8392 1148.03 35.8647 1151.19 32.5225C1154.44 29.09 1158.28 26.4704 1162.7 24.6639C1167.22 22.7669 1172.14 21.8185 1177.47 21.8185C1182.16 21.8185 1186.54 22.7218 1190.61 24.5284C1194.67 26.3349 1198.19 28.819 1201.17 31.9805C1204.15 35.0517 1206.41 38.7552 1207.94 43.0911C1209.57 47.3365 1210.34 51.9885 1210.25 57.047L1210.11 62.8732H1152.27L1149.16 51.4917H1196.16L1193.99 53.7951V50.8142C1193.72 48.014 1192.82 45.5751 1191.28 43.4975C1189.75 41.3296 1187.76 39.6585 1185.32 38.4843C1182.98 37.2196 1180.36 36.5873 1177.47 36.5873C1173.04 36.5873 1169.29 37.4455 1166.22 39.1617C1163.24 40.878 1160.99 43.3621 1159.45 46.6139C1157.92 49.7754 1157.15 53.7499 1157.15 58.5374C1157.15 63.1442 1158.1 67.1639 1159.99 70.5964C1161.98 74.0289 1164.73 76.6936 1168.26 78.5905C1171.87 80.3971 1176.07 81.3004 1180.85 81.3004C1184.19 81.3004 1187.27 80.7584 1190.06 79.6745C1192.86 78.5905 1195.89 76.6485 1199.14 73.8482L1207.4 85.3653C1204.96 87.6235 1202.17 89.5656 1199 91.1915C1195.93 92.7271 1192.68 93.9466 1189.25 94.8498C1185.82 95.7531 1182.43 96.2048 1179.09 96.2048Z" fill="black"/>
<path d="M0.791016 367.174V10.7023C0.791016 4.7959 5.64236 0.0078125 11.6268 0.0078125H50.1283C56.1128 0.0078125 60.9641 4.79589 60.9641 10.7023V279.727V310.186V367.174C60.9641 373.081 56.1128 377.869 50.1283 377.869H11.6268C5.64235 377.869 0.791016 373.081 0.791016 367.174Z" fill="black"/>
<path d="M235.928 253.159C235.214 253.792 234.801 254.696 234.801 255.641V367.214C234.801 373.099 239.652 377.869 245.637 377.869H284.138C290.123 377.869 294.974 373.099 294.974 367.214V188.804C294.974 185.27 289.605 184.568 288.167 188.079C277.429 214.295 259.399 235.137 235.928 253.159Z" fill="black"/>
<path d="M294.974 57.2229C294.974 59.5021 292.697 61.1086 290.484 60.4324C273.909 55.3695 256.358 52.4928 238.181 52.1443C236.313 52.1086 234.801 50.622 234.801 48.7856V10.6625C234.801 4.7781 239.652 0.0078125 245.637 0.0078125H284.138C290.123 0.0078125 294.974 4.77809 294.974 10.6625V57.2229Z" fill="black"/>
<path d="M76.902 250.285C93.7728 257.524 113.515 263.578 132.77 264.745C235.777 267.123 296.879 177.645 294.537 80.6535C178.009 40.8759 76.902 133.547 76.902 250.285Z" fill="#5BAE5B"/>
<path fill-rule="evenodd" clip-rule="evenodd" d="M90.7616 242.179C103.796 246.848 119.122 250.287 133.585 251.164C217.624 251.164 278.504 180.724 283.677 94.4405C185.659 59.4253 96.4284 142.217 90.7616 242.179ZM294.537 80.6535C296.879 177.645 235.777 267.123 132.77 264.745C113.515 263.578 93.7728 257.524 76.902 250.285C72.4175 130.29 178.079 40.4584 294.537 80.6535Z" fill="black"/>
<path fill-rule="evenodd" clip-rule="evenodd" d="M230.828 129.167C231.399 128.139 230.047 127.196 229.254 128.063C179.278 182.689 119.243 221.63 86.3012 234.649L96.2863 251.724C129.801 235.214 193.521 196.459 230.828 129.167Z" fill="black"/>
</svg>
